<?xml version="1.0" standalone="no"?>
<!DOCTYPE svg PUBLIC "-//W3C//DTD SVG 1.1//EN" "http://www.w3.org/Graphics/SVG/1.1/DTD/svg11.dtd">
<svg xmlns="http://www.w3.org/2000/svg" xmlns:xlink="http://www.w3.org/1999/xlink" version="1.1" x="0px" y="0px" width="713.9500122070312" height="700.9500122070312" viewBox="0 0 713.95 700.95" style="enable-background:new 0 0 713.95 700.95;" xml:space="preserve">
<style type="text/css">
	.st0{stroke:#000000;stroke-width:15.9498;stroke-miterlimit:10;}
	.st1{fill:#E5D6D6;}
	.st2{fill:#E5D6D6;stroke:#000000;stroke-width:0.2802;stroke-miterlimit:10;}
	.st3{fill:#FF6D70;}
	.st4{fill:none;stroke:#000000;stroke-width:0.2802;stroke-miterlimit:10;}
	.st5{fill:#EAD6D8;}
	.st6{fill:#FFE000;}
	.st7{fill:#FFFFFF;}
	.st8{fill:#EAADC6;}
	.st9{fill:#B7A5A6;}
	.st10{fill:none;stroke:#000000;stroke-width:0.8321;stroke-miterlimit:10;}
	.st11{fill:none;stroke:#000000;stroke-width:0.6826;stroke-miterlimit:10;}
	.st12{fill:#CC5460;}
	.st13{fill:#E5D6D6;stroke:#000000;stroke-width:0.8321;stroke-miterlimit:10;}
</style>
<defs>
</defs>
<g>
	<ellipse class="st0" cx="356.97" cy="350.47" rx="349" ry="342.5"/>
	
		<rect x="414.57" y="425.35" transform="matrix(0.7071 -0.7071 0.7071 0.7071 -248.7687 448.5529)" class="st1" width="5" height="198.44"/>
	
		<rect x="414.57" y="397.35" transform="matrix(0.7071 -0.7071 0.7071 0.7071 -228.9697 440.3519)" class="st1" width="5" height="198.44"/>
	
		<rect x="398.79" y="307.14" transform="matrix(0.679 -0.7341 0.7341 0.679 -177.6216 435.9285)" class="st1" width="21.81" height="227.89"/>
	
		<rect x="407.57" y="308.35" transform="matrix(0.7071 -0.7071 0.7071 0.7071 -168.0875 409.3347)" class="st1" width="5" height="198.44"/>
	
		<rect x="398.79" y="336.14" transform="matrix(0.679 -0.7341 0.7341 0.679 -198.9112 445.237)" class="st1" width="21.81" height="227.89"/>
	
		<rect x="245.15" y="360.23" transform="matrix(0.7341 0.679 -0.679 0.7341 415.8783 -117.2683)" class="st1" width="225.07" height="224.37"/>
	
		<rect x="398.79" y="280.14" transform="matrix(0.679 -0.7341 0.7341 0.679 -157.8003 427.2619)" class="st1" width="21.81" height="227.89"/>
	
		<rect x="398.79" y="364.14" transform="matrix(0.679 -0.7341 0.7341 0.679 -219.4667 454.2246)" class="st1" width="21.81" height="227.89"/>
	
		<rect x="398.79" y="393.14" transform="matrix(0.679 -0.7341 0.7341 0.679 -240.7563 463.5331)" class="st1" width="21.81" height="227.89"/>
	
		<rect x="398.79" y="421.14" transform="matrix(0.679 -0.7341 0.7341 0.679 -261.3117 472.5207)" class="st1" width="21.81" height="227.89"/>
	
		<rect x="414.57" y="340.35" transform="matrix(0.7071 -0.7071 0.7071 0.7071 -188.6647 423.657)" class="st1" width="5" height="198.44"/>
	
		<rect x="417.57" y="370.35" transform="matrix(0.7071 -0.7071 0.7071 0.7071 -208.9992 434.5651)" class="st1" width="5" height="198.44"/>
	
		<rect x="227.93" y="345.36" transform="matrix(0.679 -0.7341 0.7341 0.679 -159.0012 357.1251)" class="st1" width="201.92" height="30.05"/>
	
		<rect x="277.03" y="194.89" transform="matrix(0.325 0.9457 -0.9457 0.325 448.8279 -216.4062)" class="st1" width="197.95" height="22.61"/>
	<g>
		<g>
			<path class="st1" d="M353.2,73.24c0,0-6.31-11.32-27.25-22.66c0,0-22.95-7.95-50.27,7.08c-0.21,0.12-5.56,3.07-5.56,3.07l0,0     c0,0-28.48,0.41-50.42,15.52c-21.94,15.11-8.07,67.69-8.07,67.69s6.52-8.03,25.99-30.02c19.46-21.99,42.32-16,42.32-16     c15.24,12.06,32.59,10.12,41.7,7.85c0.33-0.29,0.72-0.55,1.19-0.76c1.39-0.63,2.77-1.28,4.14-1.94c0.71-0.83,1.7-1.41,2.75-1.65     c0.47-0.3,1-0.52,1.62-0.6c2.04-0.26,3.96-0.09,5.66,0.51c2.96,0.63,5.81,1.77,8.54,3.22c4.61,2.46,9.3,4.43,14.01,6.66     c0.07,0.03,0.13,0.07,0.2,0.11C360.55,91.38,353.2,73.24,353.2,73.24z"/>
			<path class="st2" d="M281.2,98.88"/>
			<path class="st2" d="M296.41,67.13"/>
			<path class="st2" d="M271.76,59.77"/>
			<path class="st2" d="M252.51,82.19"/>
			<path class="st2" d="M249.78,103.64"/>
			<path class="st2" d="M251.05,86.73"/>
		</g>
		<path class="st1" d="M268.71,60.43c0,0,3.95,9.91,15.88,7.26c11.93-2.66,13.96-2.54,13.96-2.54s10.13,0.6,10.47,9.46    s-7.54,11.76-7.54,11.76s-6.53,0.45-11.14,3.12c-4.61,2.67-8.78,4.53-11.03,8.6c0,0-12.55-1.75-21.25,1.6    c-8.69,3.35,3-17.84-2.52-21.11c-5.52-3.27-8.92-14.25-8.92-14.25S258.58,59.83,268.71,60.43z"/>
		
			<ellipse transform="matrix(0.7391 -0.6736 0.6736 0.7391 25.8243 219.1616)" class="st1" cx="295.82" cy="76.25" rx="7.64" ry="8.06"/>
		
			<ellipse transform="matrix(0.9994 -0.0357 0.0357 0.9994 -2.5286 10.6138)" class="st1" cx="296.13" cy="76.16" rx="4.08" ry="4.23"/>
		
			<ellipse transform="matrix(0.9994 -0.0357 0.0357 0.9994 -2.4861 10.6733)" class="st1" cx="297.82" cy="75" rx="1.36" ry="1.41"/>
		<path class="st1" d="M247.06,63.84c0,0,5.34-0.14,6.34,3.76c1,3.9,0.5,12.44,5.38,13.12c4.88,0.69-0.34,19.67-0.34,19.67    s-10.84,3.7-17.85,11.03c-7.01,7.33-14.44,16.21-14.44,16.21l-10.98-47c0,0,0.58-0.77,1.75-1.98c0.61-0.63,1.38-1.38,2.32-2.2    C224.04,72.25,233.13,66.09,247.06,63.84"/>
		<path class="st1" d="M219.53,75.6c0,0,11.48-1.84,7.32,7.59c-4.16,9.43-2.47,8.27-2.47,8.27s-0.67,5.01,7.32,0.01    c7.99-5,16.21-6.61,16.21-6.61s4.84,0.71,3.15,1.87c-1.69,1.16-19.35,12.32-19.35,12.32s-4.28,3.95,1.69,6.41    c5.97,2.46,3.65,9.14,3.65,9.14l-25.24,29.98c0,0-10.26-36.38-4.64-50.36C212.78,80.25,219.53,75.6,219.53,75.6z"/>
	</g>
	
		<rect x="263.15" y="355.23" transform="matrix(0.7341 0.679 -0.679 0.7341 417.269 -130.8199)" class="st3" width="225.07" height="224.37"/>
	<g>
		<g>
			<path class="st3" d="M362.2,89.24c0,0-6.31-11.32-27.25-22.66c0,0-22.95-7.95-50.27,7.08c-0.21,0.12-5.56,3.07-5.56,3.07l0,0     c0,0-28.48,0.41-50.42,15.52c-21.94,15.11-8.07,67.69-8.07,67.69s6.52-8.03,25.99-30.02c19.46-21.99,42.32-16,42.32-16     c15.24,12.06,32.59,10.12,41.7,7.85c0.33-0.29,0.72-0.55,1.19-0.76c1.39-0.63,2.77-1.28,4.14-1.94c0.71-0.83,1.7-1.41,2.75-1.65     c0.47-0.3,1-0.52,1.62-0.6c2.04-0.26,3.96-0.09,5.66,0.51c2.96,0.63,5.81,1.77,8.54,3.22c4.61,2.46,9.3,4.43,14.01,6.66     c0.07,0.03,0.13,0.07,0.2,0.11C369.55,107.38,362.2,89.24,362.2,89.24z"/>
			<path class="st4" d="M290.2,114.88"/>
			<path class="st4" d="M305.41,83.13"/>
			<path class="st4" d="M280.76,75.77"/>
			<path class="st4" d="M261.51,98.19"/>
			<path class="st4" d="M258.78,119.64"/>
			<path class="st4" d="M260.05,102.73"/>
		</g>
		<path class="st5" d="M277.71,76.43c0,0,3.95,9.91,15.88,7.26c11.93-2.66,13.96-2.54,13.96-2.54s10.13,0.6,10.47,9.46    s-7.54,11.76-7.54,11.76s-6.53,0.45-11.14,3.12c-4.61,2.67-8.78,4.53-11.03,8.6c0,0-12.55-1.75-21.25,1.6    c-8.69,3.35,3-17.84-2.52-21.11c-5.52-3.27-8.92-14.25-8.92-14.25S267.58,75.83,277.71,76.43z"/>
		
			<ellipse transform="matrix(0.7391 -0.6736 0.6736 0.7391 17.3947 229.3987)" class="st6" cx="304.82" cy="92.25" rx="7.64" ry="8.06"/>
		<ellipse transform="matrix(0.9994 -0.0357 0.0357 0.9994 -3.0938 10.9451)" cx="305.13" cy="92.16" rx="4.08" ry="4.23"/>
		
			<ellipse transform="matrix(0.9994 -0.0357 0.0357 0.9994 -3.0512 11.0046)" class="st7" cx="306.82" cy="91" rx="1.36" ry="1.41"/>
		<path class="st8" d="M256.06,79.84c0,0,5.34-0.14,6.34,3.76c1,3.9,0.5,12.44,5.38,13.12c4.88,0.69-0.34,19.67-0.34,19.67    s-10.84,3.7-17.85,11.03s-14.44,16.21-14.44,16.21l-10.98-47c0,0,0.58-0.77,1.75-1.98c0.61-0.63,1.38-1.38,2.32-2.2    C233.04,88.25,242.13,82.09,256.06,79.84"/>
		<path class="st9" d="M228.53,91.6c0,0,11.48-1.84,7.32,7.59c-4.16,9.43-2.47,8.27-2.47,8.27s-0.67,5.01,7.32,0.01    c7.99-5,16.21-6.61,16.21-6.61s4.84,0.71,3.15,1.87c-1.69,1.16-19.35,12.32-19.35,12.32s-4.28,3.95,1.69,6.41    c5.97,2.46,3.65,9.14,3.65,9.14l-25.24,29.98c0,0-10.26-36.38-4.64-50.36C221.78,96.25,228.53,91.6,228.53,91.6z"/>
	</g>
	<path class="st10" d="M183.95,242.94"/>
	
		<rect x="285.03" y="189.89" transform="matrix(0.325 0.9457 -0.9457 0.325 449.4996 -227.3472)" class="st3" width="197.95" height="22.61"/>
	
		<rect x="245.93" y="340.36" transform="matrix(0.679 -0.7341 0.7341 0.679 -149.5528 368.7344)" class="st3" width="201.92" height="30.05"/>
	<path class="st11" d="M173.45,238.37"/>
	
		<rect x="416.79" y="275.14" transform="matrix(0.679 -0.7341 0.7341 0.679 -148.3519 438.8712)" class="st12" width="21.81" height="227.89"/>
	
		<rect x="416.79" y="302.14" transform="matrix(0.679 -0.7341 0.7341 0.679 -168.1733 447.5378)" class="st12" width="21.81" height="227.89"/>
	
		<rect x="416.79" y="331.14" transform="matrix(0.679 -0.7341 0.7341 0.679 -189.4629 456.8463)" class="st12" width="21.81" height="227.89"/>
	
		<rect x="416.79" y="359.14" transform="matrix(0.679 -0.7341 0.7341 0.679 -210.0183 465.8339)" class="st12" width="21.81" height="227.89"/>
	
		<rect x="416.79" y="388.14" transform="matrix(0.679 -0.7341 0.7341 0.679 -231.3079 475.1425)" class="st12" width="21.81" height="227.89"/>
	
		<rect x="416.79" y="416.14" transform="matrix(0.679 -0.7341 0.7341 0.679 -251.8634 484.13)" class="st12" width="21.81" height="227.89"/>
	
		<rect x="425.57" y="303.35" transform="matrix(0.7071 -0.7071 0.7071 0.7071 -159.2799 420.5981)" class="st7" width="5" height="198.44"/>
	
		<rect x="432.57" y="335.35" transform="matrix(0.7071 -0.7071 0.7071 0.7071 -179.857 434.9204)" class="st7" width="5" height="198.44"/>
	
		<rect x="435.57" y="365.35" transform="matrix(0.7071 -0.7071 0.7071 0.7071 -200.1916 445.8286)" class="st7" width="5" height="198.44"/>
	
		<rect x="432.57" y="392.35" transform="matrix(0.7071 -0.7071 0.7071 0.7071 -220.1621 451.6154)" class="st7" width="5" height="198.44"/>
	
		<rect x="432.57" y="420.35" transform="matrix(0.7071 -0.7071 0.7071 0.7071 -239.9611 459.8163)" class="st7" width="5" height="198.44"/>
	<path class="st13" d="M165.95,247.94"/>
</g>
</svg>